# xmcd CD database file
#
# Track frame offsets:
#	150
#	16179
#	29712
#	46089
#	59155
#	74321
#	87314
#	102939
#	117195
#	137220
#	155888
#
# Disc length: 2308 seconds
#
# Revision: 0
# Processed by: cddbd v1.4PL0 Copyright (c) Steve Scherf et al.
# Submitted via: Feurio! 1.66 - http://www.feurio.com
#
DISCID=9c09020b
DTITLE=Kelli Hake - Stay a little longer
DYEAR=1900
DGENRE=
TTITLE0=STAY A LITTLE LONGER
TTITLE1=WE GOT IT ALL
TTITLE2=A LITTLE AT A TIME
TTITLE3=BEST OF YOU
TTITLE4=FAITHFUL
TTITLE5=BACK ON THE FARM
TTITLE6=FEELING GOOD AGAIN
TTITLE7=SOMETHING AMAZING
TTITLE8=STILL STANDING
TTITLE9=THIS COULD BE LIKE THAT
TTITLE10=FOREVER MI AMOR
EXTD=
EXTT0=
EXTT1=
EXTT2=
EXTT3=
EXTT4=
EXTT5=
EXTT6=
EXTT7=
EXTT8=
EXTT9=
EXTT10=
PLAYORDER=
